<svg xmlns="http://www.w3.org/2000/svg" width="128" height="36" viewBox="0 0 128 36">
    <g fill="none" fill-rule="evenodd">
        <path fill="#000" fill-rule="nonzero" d="M8.744 26.727h2.47v2.455h-2.75A4.91 4.91 0 0 1 3.56 24.46v-.733h-.003V12.818H0v-2.454h3.556V6.273l2.461-.818v4.909h5.197v2.454H6.017v10.91h-.003v2.999h.003V24a2.727 2.727 0 0 0 2.727 2.727z"/>
        <path fill="#2FCC70" d="M13.949 26.727h5.47v2.455h-5.47z"/>
        <path fill="#000" fill-rule="nonzero" d="M25.092 15.5c0 .813.359 1.46 1.075 1.938.717.48 1.589.85 2.616 1.114 1.027.263 2.054.556 3.082.88 1.027.323 1.899.861 2.616 1.616.716.754 1.075 1.741 1.075 2.962 0 1.533-.604 2.778-1.81 3.735-1.206.958-2.765 1.437-4.676 1.437-1.72 0-3.183-.383-4.39-1.15-1.206-.766-2.048-1.76-2.526-2.98l2.007-1.185c.334.933.937 1.67 1.81 2.208.871.54 1.904.808 3.099.808 1.17 0 2.15-.233 2.938-.7.788-.467 1.183-1.191 1.183-2.173 0-.814-.359-1.46-1.075-1.939-.717-.479-1.59-.85-2.616-1.113a59.495 59.495 0 0 1-3.082-.88 6.047 6.047 0 0 1-2.616-1.616c-.716-.754-1.075-1.742-1.075-2.963 0-1.46.58-2.681 1.738-3.663 1.159-.982 2.622-1.472 4.39-1.472 1.457 0 2.735.329 3.834.987 1.099.659 1.911 1.55 2.437 2.676l-1.971 1.149c-.693-1.676-2.126-2.514-4.3-2.514-1.028 0-1.911.245-2.652.736-.74.491-1.11 1.191-1.11 2.101zM48.045 10.09c2.597 0 4.81.923 6.643 2.766 1.832 1.844 2.748 4.1 2.748 6.769 0 2.668-.916 4.925-2.748 6.768-1.832 1.844-4.046 2.766-6.643 2.766-3.227 0-5.678-1.334-7.352-4.003V36H38.29V10.528h2.402v3.566c1.674-2.669 4.125-4.003 7.352-4.003zm-4.938 14.796c1.387 1.384 3.09 2.075 5.11 2.075 2.02 0 3.724-.698 5.112-2.093 1.387-1.395 2.08-3.1 2.08-5.115 0-2.014-.693-3.719-2.08-5.114-1.388-1.396-3.091-2.094-5.111-2.094-2.02 0-3.724.698-5.111 2.094-1.388 1.395-2.081 3.1-2.081 5.114 0 2.015.693 3.726 2.08 5.133zM62.508 13.91c1.086-2.183 2.95-3.274 5.595-3.274v2.302c-1.606 0-2.94.48-4.002 1.44-1.062.958-1.593 2.47-1.593 4.531v10.273H60.17V10.924h2.337v2.986zM73.641 8.25c-.32.318-.707.477-1.162.477-.456 0-.844-.159-1.163-.477a1.576 1.576 0 0 1-.478-1.16c0-.454.16-.84.478-1.158.32-.318.707-.477 1.163-.477.455 0 .843.159 1.162.477.32.318.479.704.479 1.159 0 .454-.16.84-.479 1.159zM71.385 29.182V10.636h2.188v18.546zM85.338 10.364c2.2 0 3.934.67 5.203 2.01 1.269 1.34 1.903 3.145 1.903 5.415v11.393h-2.392V17.789c0-1.618-.43-2.874-1.287-3.767-.859-.893-2.073-1.34-3.644-1.34-1.74 0-3.154.55-4.242 1.648-1.088 1.099-1.631 2.795-1.631 5.089v9.763h-2.393V10.798h2.393v2.826c1.353-2.174 3.383-3.26 6.09-3.26zM111.923 10.252h2.402V27.61c0 2.604-.898 4.653-2.694 6.148-1.795 1.495-3.943 2.242-6.442 2.242-4.27 0-7.146-1.47-8.626-4.412l2.11-1.193c1.093 2.194 3.264 3.29 6.516 3.29 2.087 0 3.73-.548 4.932-1.645 1.201-1.097 1.802-2.573 1.802-4.43v-2.82c-1.675 2.651-4.126 3.977-7.353 3.977-2.596 0-4.81-.916-6.642-2.748-1.833-1.832-2.749-4.074-2.749-6.726s.916-4.894 2.749-6.726c1.832-1.833 4.046-2.749 6.642-2.749 3.227 0 5.678 1.326 7.353 3.978v-3.544zM99.785 24.315c1.388 1.383 3.091 2.074 5.111 2.074 2.02 0 3.724-.697 5.111-2.093 1.388-1.395 2.081-3.1 2.081-5.114 0-2.015-.693-3.72-2.08-5.115-1.388-1.396-3.092-2.093-5.112-2.093s-3.723.697-5.11 2.093c-1.388 1.395-2.082 3.1-2.082 5.115 0 2.014.694 3.725 2.081 5.133z"/>
        <path fill="#2FCC70" d="M120.333 0H128v7.636a3.273 3.273 0 0 1-3.273 3.273h-7.667V3.273A3.273 3.273 0 0 1 120.333 0z"/>
    </g>
</svg>
