<svg xmlns="http://www.w3.org/2000/svg" width="12.219" height="12.22" viewBox="0 0 12.219 12.22">
  <defs>
    <style>
      .cls-1 {
        fill: #0aa584;
        fill-rule: evenodd;
      }
    </style>
  </defs>
  <path id="new_vector_shape_done_copy_19" data-name="new_vector_shape_done copy 19" class="cls-1" d="M962.367,1043a2.277,2.277,0,0,1,1.718,1.18c0.868,0.99,1.916,1.87,2.848,2.8a3.861,3.861,0,0,0,1.13,1.04,9.613,9.613,0,0,1,1.266-1.27c0.905-.9,1.809-1.81,2.713-2.71,0.525-.53.783-1.18,1.809-0.95a1.086,1.086,0,0,1,.271.81,1.559,1.559,0,0,0-.181.32,5.951,5.951,0,0,1-.588.59c-0.934.93-1.868,1.87-2.8,2.8a8.73,8.73,0,0,0-1.492,1.54,9.6,9.6,0,0,1,1.266,1.26c0.874,0.88,1.748,1.75,2.622,2.63,0.455,0.45,1.175.78,1.176,1.67a1.006,1.006,0,0,1-1,.5,12.125,12.125,0,0,0-1.085-1c-0.867-.86-1.71-1.75-2.577-2.62a8.642,8.642,0,0,0-1.492-1.45,9.613,9.613,0,0,1-1.266,1.27l-2.668,2.67c-0.482.48-.744,1.13-1.718,1.13a4.133,4.133,0,0,0-.407-0.45,1.251,1.251,0,0,1,.046-0.55,4.087,4.087,0,0,1,1.13-1.22c0.889-.9,1.778-1.81,2.668-2.71a4.653,4.653,0,0,0,1.175-1.27,9.052,9.052,0,0,1-1.492-1.49q-1.778-1.77-3.527-3.57a3.068,3.068,0,0,1,.046-0.63A2.581,2.581,0,0,0,962.367,1043Z" transform="translate(-961.906 -1043)"/>
</svg>
